<svg width="60" height="34" viewBox="0 0 60 34" fill="none" xmlns="http://www.w3.org/2000/svg">
<g clip-path="url(#clip0_4004_135)">
<path d="M10.8362 3.24103C12.7322 1.19536 15.2402 0 18.2042 0C23.9642 0 27.7802 4.31316 28.5122 10.7829C28.7522 12.8902 28.7522 15.8478 28.7402 19.2737V33.199H20.8202V23.6977C20.8202 23.6977 20.8082 15.5643 20.7602 14.0362C20.5442 7.41863 16.7282 3.25335 10.8362 3.24103C9.04816 5.18811 8.10016 7.54186 7.95616 11.1526C7.93216 11.6578 7.94416 13.4447 7.94416 15.7862C7.94416 17.0062 7.95616 18.3741 7.95616 19.8036V33.2113H0.0361618V18.5835C0.0361618 18.0783 0.0241618 17.573 0.0241618 17.0678C0.0121618 16.0449 -0.0118382 15.0221 0.0361618 13.9993C0.120162 12.2987 0.408162 10.6227 1.18816 9.06995C2.95216 5.52084 6.57616 3.22871 10.4282 3.22871C10.5602 3.22871 10.6922 3.24103 10.8362 3.24103Z" fill="#820AD1"/>
<path d="M59.964 20.0007C60.012 18.9779 60 17.9551 59.976 16.9322C59.964 16.427 59.964 15.9217 59.964 15.4165V0.78869H52.044V14.1964C52.044 15.626 52.044 16.9938 52.056 18.2138C52.068 20.5676 52.068 22.3545 52.044 22.8474C51.9 26.4581 50.952 28.8119 49.176 30.7466C43.284 30.7466 39.456 26.5814 39.252 19.9638C39.204 18.448 39.18 14.6647 39.18 10.3023V0.776367L31.26 0.78869V14.714C31.26 18.1399 31.26 21.1098 31.488 23.2048C32.22 29.6745 36.036 33.9877 41.796 33.9877C44.748 33.9877 47.268 32.7923 49.164 30.7466C49.296 30.7466 49.428 30.759 49.572 30.759C53.436 30.759 57.048 28.4668 58.812 24.9177C59.592 23.365 59.88 21.7013 59.964 20.0007Z" fill="#820AD1"/>
</g>
<defs>
<clipPath id="clip0_4004_135">
<rect width="60" height="34" fill="white"/>
</clipPath>
</defs>
</svg>
