<svg width="107" height="61" viewBox="0 0 107 61" fill="none" xmlns="http://www.w3.org/2000/svg">
<g clip-path="url(#clip0_4176_1740)">
<path d="M19.1559 6.66719C22.5075 3.06737 26.9409 0.963867 32.1805 0.963867C42.3626 0.963867 49.1082 8.55384 50.4022 19.9388C50.8264 23.6471 50.8264 28.8516 50.8052 34.8802V59.385H36.8048V42.6654C36.8048 42.6654 36.7836 28.3528 36.6988 25.6638C36.3169 14.0186 29.5713 6.68888 19.1559 6.66719C15.9952 10.0935 14.3194 14.2355 14.0648 20.5894C14.0224 21.4785 14.0436 24.6229 14.0436 28.7432C14.0436 30.8901 14.0648 33.2972 14.0648 35.8127V59.4067H0.0644329V33.6658C0.0644329 32.7767 0.0432202 31.8876 0.0432202 30.9985C0.0220075 29.1986 -0.0204179 27.3987 0.0644329 25.5988C0.212922 22.6061 0.722026 19.6569 2.10085 16.9245C5.21912 10.679 11.6254 6.64551 18.4346 6.64551C18.668 6.64551 18.9013 6.66719 19.1559 6.66719Z" fill="#4E0578"/>
<path d="M106 36.1602C106.084 34.3603 106.063 32.5604 106.021 30.7604C106 29.8713 106 28.9822 106 28.0931V2.35225H91.9992V25.9462C91.9992 28.4618 91.9992 30.8689 92.0204 33.0158C92.0416 37.1577 92.0416 40.3021 91.9992 41.1696C91.7446 47.5234 90.0688 51.6654 86.9293 55.07C76.5139 55.07 69.7471 47.7403 69.3864 36.0951C69.3016 33.4278 69.2592 26.7703 69.2592 19.0936V2.33057L55.2588 2.35225V26.857C55.2588 32.8856 55.2588 38.1119 55.6618 41.7984C56.9558 53.1834 63.7014 60.7734 73.8835 60.7734C79.1019 60.7734 83.5565 58.6699 86.9081 55.07C87.1415 55.07 87.3748 55.0917 87.6294 55.0917C94.4599 55.0917 100.845 51.0582 103.963 44.8127C105.342 42.0803 105.851 39.1528 106 36.1602Z" fill="#4E0578"/>
</g>
<defs>
<clipPath id="clip0_4176_1740">
<rect width="106.063" height="59.8307" fill="white" transform="translate(0 0.963867)"/>
</clipPath>
</defs>
</svg>
