<svg width="78" height="45" viewBox="0 0 78 45" fill="none" xmlns="http://www.w3.org/2000/svg">
<g clip-path="url(#clip0_4032_1638)">
<path d="M14.087 4.42264C16.5518 1.7753 19.8122 0.228363 23.6654 0.228363C31.1534 0.228363 36.1142 5.8101 37.0658 14.1827C37.3778 16.9098 37.3778 20.7372 37.3622 25.1707V43.1918H27.0662V30.896C27.0662 30.896 27.0506 20.3704 26.9882 18.3929C26.7074 9.82894 21.7466 4.43858 14.087 4.42264C11.7626 6.94239 10.5302 9.98842 10.343 14.6611C10.3118 15.315 10.3274 17.6274 10.3274 20.6575C10.3274 22.2363 10.343 24.0065 10.343 25.8565V43.2077H0.0470042V24.2777C0.0470042 23.6238 0.0314042 22.9699 0.0314042 22.3161C0.0158042 20.9924 -0.0153958 19.6687 0.0470042 18.3451C0.156204 16.1443 0.530604 13.9754 1.5446 11.966C3.8378 7.37298 8.549 4.40669 13.5566 4.40669C13.7282 4.40669 13.8998 4.42264 14.087 4.42264Z" fill="white"/>
<path d="M77.9532 26.1117C78.0156 24.788 78 23.4643 77.9688 22.1407C77.9532 21.4868 77.9532 20.8329 77.9532 20.1791V1.24903H67.6572V18.6002C67.6572 20.4502 67.6572 22.2204 67.6728 23.7992C67.6884 26.8453 67.6884 29.1577 67.6572 29.7956C67.47 34.4683 66.2376 37.5143 63.9288 40.0181C56.2692 40.0181 51.2928 34.6278 51.0276 26.0638C50.9652 24.1022 50.934 19.2063 50.934 13.5607V1.23308L40.638 1.24903V19.27C40.638 23.7035 40.638 27.547 40.9344 30.2581C41.886 38.6307 46.8468 44.2124 54.3348 44.2124C58.1724 44.2124 61.4484 42.6655 63.9132 40.0181C64.0848 40.0181 64.2564 40.0341 64.4436 40.0341C69.4668 40.0341 74.1624 37.0678 76.4556 32.4748C77.4696 30.4654 77.844 28.3125 77.9532 26.1117Z" fill="white"/>
</g>
<defs>
<clipPath id="clip0_4032_1638">
<rect width="78" height="44" fill="white" transform="translate(0 0.228363)"/>
</clipPath>
</defs>
</svg>
