<svg width="63" height="37" viewBox="0 0 63 37" fill="none" xmlns="http://www.w3.org/2000/svg">
<g clip-path="url(#clip0_4134_1295)">
<path d="M11.378 3.8884C13.3688 1.7224 16.0022 0.456726 19.1144 0.456726C25.1624 0.456726 29.1692 5.0236 29.9378 11.8739C30.1898 14.1052 30.1898 17.2367 30.1772 20.8641V35.6086H21.8612V25.5484C21.8612 25.5484 21.8486 16.9366 21.7982 15.3186C21.5714 8.31175 17.5646 3.90145 11.378 3.8884C9.50056 5.95002 8.50516 8.44223 8.35396 12.2654C8.32876 12.8003 8.34136 14.6923 8.34136 17.1715C8.34136 18.4633 8.35396 19.9116 8.35396 21.4252V35.6216H0.0379637V20.1334C0.0379637 19.5984 0.0253637 19.0635 0.0253637 18.5285C0.0127637 17.4455 -0.0124363 16.3625 0.0379637 15.2795C0.126164 13.4788 0.428564 11.7043 1.24756 10.0602C3.09976 6.30232 6.90496 3.87536 10.9496 3.87536C11.0882 3.87536 11.2268 3.8884 11.378 3.8884Z" fill="#4E0578"/>
<path d="M62.9615 21.6339C63.0119 20.5509 62.9993 19.4679 62.9741 18.3849C62.9615 17.85 62.9615 17.315 62.9615 16.78V1.2918H54.6455V15.4882C54.6455 17.0018 54.6455 18.4502 54.6581 19.742C54.6707 22.2342 54.6707 24.1262 54.6455 24.6481C54.4943 28.4712 53.4989 30.9634 51.6341 33.012C45.4475 33.012 41.4281 28.6017 41.2139 21.5948C41.1635 19.9899 41.1383 15.9841 41.1383 11.365V1.27875L32.8223 1.2918V16.0363C32.8223 19.6637 32.8223 22.8083 33.0617 25.0265C33.8303 31.8768 37.8371 36.4437 43.8851 36.4437C46.9847 36.4437 49.6307 35.178 51.6215 33.012C51.7601 33.012 51.8987 33.025 52.0499 33.025C56.1071 33.025 59.8997 30.5981 61.7519 26.8402C62.5709 25.1961 62.8733 23.4346 62.9615 21.6339Z" fill="#4E0578"/>
</g>
<defs>
<clipPath id="clip0_4134_1295">
<rect width="63" height="36" fill="white" transform="translate(0 0.456726)"/>
</clipPath>
</defs>
</svg>
